<svg version="1.0" preserveAspectRatio="xMidYMid meet" viewBox="15.551967600000001 56.3759995128 775.98 670.679994204" zoomAndPan="magnify" xmlns:xlink="http://www.w3.org/1999/xlink" xmlns="http://www.w3.org/2000/svg" style="max-height: 500px" width="775.98" height="670.679994204"><path fill-rule="nonzero" fill-opacity="1" d="M 405.464844 60.960938 L 391.785156 84.640625 L 360.476562 139.101562 L 356.003906 146.996094 L 360.476562 154.886719 L 577.265625 530.324219 L 368.894531 530.324219 L 364.421875 538.214844 L 333.113281 592.941406 L 319.429688 616.355469 L 346.53125 616.355469 L 699.082031 616.621094 L 726.179688 616.355469 L 712.5 592.675781 L 419.148438 84.640625 Z M 347.320312 161.722656 L 333.640625 185.402344 L 40.289062 693.707031 L 26.609375 717.121094 L 126.058594 717.121094 L 130.53125 709.230469 L 347.324219 333.792969 L 447.035156 506.117188 L 451.242188 514.011719 L 550.695312 514.011719 L 537.011719 490.597656 L 360.996094 185.402344 Z M 346.265625 364.835938 L 332.847656 388.515625 L 156.574219 693.441406 L 142.894531 717.117188 L 784.324219 717.117188 L 770.644531 693.441406 L 739.335938 638.980469 L 734.597656 631.085938 L 292.070312 631.085938 L 391.519531 458.761719 L 395.992188 450.867188 L 391.519531 442.976562 L 359.949219 388.515625 Z M 346.265625 364.835938" fill="#ea580c"/></svg>